<svg xmlns="http://www.w3.org/2000/svg" viewBox="0 0 260 340" fill="none">
  <defs>
    <clipPath id="shield-clip-advanced">
      <path d="M46 18h168c11 0 20 9 20 20v177c0 59-42 111-104 132C68 326 26 274 26 215V38c0-11 9-20 20-20Z" />
    </clipPath>
  </defs>

  <path
    d="M46 18h168c11 0 20 9 20 20v177c0 59-42 111-104 132C68 326 26 274 26 215V38c0-11 9-20 20-20Z"
    fill="#fff"
    stroke="#fff"
    stroke-linejoin="round"
    stroke-width="10"
  />

  <g clip-path="url(#shield-clip-advanced)">
    <rect x="26" y="18" width="208" height="154" fill="#fff" />
    <rect x="26" y="172" width="208" height="175" fill="#ffb61e" />
  </g>

  <path
    d="M46 18h168c11 0 20 9 20 20v177c0 59-42 111-104 132C68 326 26 274 26 215V38c0-11 9-20 20-20Z"
    stroke="#000"
    stroke-linejoin="round"
    stroke-width="5"
  />
  <line x1="26" x2="234" y1="172" y2="172" stroke="#000" stroke-width="5" />

  <text
    x="58"
    y="88"
    fill="#000"
    font-family="Arial, Helvetica, sans-serif"
    font-size="28"
    font-weight="700"
    letter-spacing="-0.5"
  >
    Academy
  </text>
  <text
    x="58"
    y="124"
    fill="#000"
    font-family="Arial, Helvetica, sans-serif"
    font-size="26"
    font-weight="500"
    letter-spacing="-0.4"
  >
    Advanced
  </text>

  <g transform="translate(64 190) scale(6.2)">
    <path
      d="m15 12-8.373 8.373a1 1 0 1 1-3-3L12 9"
      stroke="#000"
      stroke-linecap="round"
      stroke-linejoin="round"
      stroke-width="1.5"
    />
    <path d="m18 15 4-4" stroke="#000" stroke-linecap="round" stroke-linejoin="round" stroke-width="1.5" />
    <path
      d="m21.5 11.5-1.914-1.914A2 2 0 0 1 19 8.172V7l-2.26-2.26a6 6 0 0 0-4.202-1.756L9 2.96l.92.82A6.18 6.18 0 0 1 12 8.4V10l2 2h1.172a2 2 0 0 1 1.414.586L18.5 14.5"
      stroke="#000"
      stroke-linecap="round"
      stroke-linejoin="round"
      stroke-width="1.5"
    />
  </g>

  <g transform="translate(97 190) scale(6.2)">
    <path
      d="M14.7 6.3a1 1 0 0 0 0 1.4l1.6 1.6a1 1 0 0 0 1.4 0l3.77-3.77a6 6 0 0 1-7.94 7.94l-6.91 6.91a2.12 2.12 0 0 1-3-3l6.91-6.91a6 6 0 0 1 7.94-7.94l-3.76 3.76z"
      stroke="#000"
      stroke-linecap="round"
      stroke-linejoin="round"
      stroke-width="1.5"
    />
  </g>
</svg>
