<svg xmlns="http://www.w3.org/2000/svg" viewBox="0 0 16 16" shape-rendering="crispEdges">
  <rect x="7" y="0" width="1" height="2" fill="#111111" />
  <rect x="8" y="0" width="4" height="1" fill="#18b63f" />
  <rect x="9" y="1" width="4" height="1" fill="#18b63f" />
  <rect x="11" y="2" width="2" height="1" fill="#0f8f30" />
  <rect x="12" y="3" width="1" height="1" fill="#0f8f30" />

  <rect x="6" y="2" width="4" height="1" fill="#f7f7f7" />
  <rect x="5" y="3" width="7" height="2" fill="#f7f7f7" />
  <rect x="4" y="5" width="9" height="2" fill="#fff200" />
  <rect x="3" y="7" width="10" height="2" fill="#f5a623" />
  <rect x="3" y="9" width="10" height="2" fill="#ef4335" />
  <rect x="3" y="11" width="10" height="2" fill="#9327ad" />
  <rect x="4" y="13" width="8" height="2" fill="#2f49c7" />
  <rect x="5" y="15" width="6" height="1" fill="#24317f" />

  <rect x="5" y="2" width="1" height="12" fill="#111111" />
  <rect x="4" y="4" width="1" height="10" fill="#111111" />
  <rect x="3" y="6" width="1" height="7" fill="#111111" />
  <rect x="2" y="8" width="1" height="3" fill="#111111" />

  <rect x="10" y="2" width="1" height="1" fill="#111111" />
  <rect x="11" y="3" width="1" height="2" fill="#111111" />
  <rect x="12" y="4" width="1" height="9" fill="#111111" />
  <rect x="11" y="13" width="1" height="2" fill="#111111" />

  <rect x="5" y="15" width="7" height="1" fill="#111111" />
  <rect x="5" y="14" width="1" height="1" fill="#111111" />
  <rect x="10" y="14" width="1" height="1" fill="#111111" />
</svg>
