<svg xmlns="http://www.w3.org/2000/svg" viewBox="0 0 32 32" shape-rendering="crispEdges">
  <rect width="32" height="32" fill="#000000"/>
  <rect x="13" y="7" width="6" height="1" fill="#9E9E9E"/>
  <rect x="11" y="8" width="10" height="1" fill="#C2C2C2"/>
  <rect x="9" y="9" width="14" height="1" fill="#DFDFDF"/>
  <rect x="7" y="10" width="18" height="1" fill="#E8E8E8"/>
  <rect x="5" y="11" width="22" height="1" fill="#DFDFDF"/>
  <rect x="3" y="12" width="26" height="1" fill="#D7D7D7"/>
  <rect x="5" y="13" width="22" height="1" fill="#DFDFDF"/>
  <rect x="7" y="14" width="18" height="1" fill="#E8E8E8"/>
  <rect x="9" y="15" width="12" height="1" fill="#ECECEC"/>
  <rect x="21" y="15" width="8" height="1" fill="#BDBDBD"/>
  <rect x="2" y="14" width="1" height="8" fill="#F5F5F5"/>
  <rect x="3" y="15" width="1" height="9" fill="#F5F5F5"/>
  <rect x="4" y="16" width="1" height="9" fill="#FFFFFF"/>
  <rect x="5" y="17" width="1" height="8" fill="#F5F5F5"/>
  <rect x="6" y="18" width="1" height="7" fill="#FFFFFF"/>
  <rect x="7" y="19" width="1" height="6" fill="#F5F5F5"/>
  <rect x="8" y="20" width="1" height="5" fill="#FFFFFF"/>
  <rect x="9" y="16" width="1" height="10" fill="#EAEAEA"/>
  <rect x="10" y="17" width="1" height="10" fill="#F5F5F5"/>
  <rect x="11" y="18" width="1" height="9" fill="#FFFFFF"/>
  <rect x="12" y="19" width="1" height="8" fill="#F5F5F5"/>
  <rect x="13" y="20" width="1" height="7" fill="#FFFFFF"/>
  <rect x="14" y="21" width="1" height="6" fill="#F5F5F5"/>
  <rect x="15" y="15" width="1" height="13" fill="#9F9F9F"/>
  <rect x="16" y="15" width="1" height="13" fill="#E9E9E9"/>
  <rect x="17" y="15" width="1" height="13" fill="#E9E9E9"/>
  <rect x="18" y="15" width="1" height="13" fill="#E9E9E9"/>
  <rect x="19" y="16" width="1" height="12" fill="#D4D4D4"/>
  <rect x="20" y="16" width="1" height="12" fill="#D4D4D4"/>
  <rect x="21" y="16" width="1" height="12" fill="#D4D4D4"/>
  <rect x="22" y="16" width="1" height="12" fill="#D4D4D4"/>
  <rect x="23" y="16" width="1" height="12" fill="#D4D4D4"/>
  <rect x="24" y="16" width="1" height="12" fill="#D4D4D4"/>
  <rect x="25" y="16" width="1" height="12" fill="#D4D4D4"/>
  <rect x="26" y="16" width="1" height="11" fill="#D4D4D4"/>
  <rect x="27" y="16" width="1" height="10" fill="#C8C8C8"/>
  <rect x="28" y="16" width="1" height="9" fill="#BDBDBD"/>
  <rect x="15" y="28" width="13" height="1" fill="#8A8A8A"/>
  <rect x="29" y="17" width="3" height="9" fill="#4A4A4A"/>
  <rect x="28" y="18" width="1" height="8" fill="#7B7B7B"/>
</svg>
