<svg xmlns="http://www.w3.org/2000/svg" viewBox="0 0 83 107" fill="none">
  <path d="M18 4H65V103H18Z" fill="#0E0E0E"/>
  <path d="M19 5H64V102H19Z" fill="#252525"/>
  <path d="M20 6H63V101H20Z" fill="#C9C9C9"/>
  <path d="M20 6H63V9H20Z" fill="#F8F8F8"/>
  <path d="M20 6H23V101H20Z" fill="#F8F8F8"/>
  <path d="M60 6H63V101H60Z" fill="#5A5A5A"/>
  <path d="M20 98H63V101H20Z" fill="#5A5A5A"/>
  <path d="M25 16H58V33H25Z" fill="#ECECEC"/>
  <path d="M25 16H58V18H25Z" fill="#FFFFFF"/>
  <path d="M25 16H27V33H25Z" fill="#FFFFFF"/>
  <path d="M56 16H58V33H56Z" fill="#737373"/>
  <path d="M25 31H58V33H25Z" fill="#737373"/>
  <path d="M31 22H34V27H31Z" fill="#5B5B5B"/>
  <path d="M37 22H40V27H37Z" fill="#5B5B5B"/>
  <path d="M43 22H46V27H43Z" fill="#5B5B5B"/>
  <path d="M49 22H52V27H49Z" fill="#5B5B5B"/>
  <path d="M27 39H56V88H27Z" fill="#BEBEBE"/>
  <path d="M27 39H56V41H27Z" fill="#FFFFFF"/>
  <path d="M27 39H29V88H27Z" fill="#FFFFFF"/>
  <path d="M54 39H56V88H54Z" fill="#727272"/>
  <path d="M27 86H56V88H27Z" fill="#727272"/>
  <path d="M31 43H38V51H31Z" fill="#F3F3F3"/>
  <path d="M31 43H38V44H31Z" fill="#FFFFFF"/>
  <path d="M31 43H32V51H31Z" fill="#FFFFFF"/>
  <path d="M37 43H38V51H37Z" fill="#6F6F6F"/>
  <path d="M31 50H38V51H31Z" fill="#6F6F6F"/>
  <path d="M42 43H49V51H42Z" fill="#F3F3F3"/>
  <path d="M42 43H49V44H42Z" fill="#FFFFFF"/>
  <path d="M42 43H43V51H42Z" fill="#FFFFFF"/>
  <path d="M48 43H49V51H48Z" fill="#6F6F6F"/>
  <path d="M42 50H49V51H42Z" fill="#6F6F6F"/>
  <path d="M31 55H38V63H31Z" fill="#F3F3F3"/>
  <path d="M31 55H38V56H31Z" fill="#FFFFFF"/>
  <path d="M31 55H32V63H31Z" fill="#FFFFFF"/>
  <path d="M37 55H38V63H37Z" fill="#6F6F6F"/>
  <path d="M31 62H38V63H31Z" fill="#6F6F6F"/>
  <path d="M42 55H49V63H42Z" fill="#F3F3F3"/>
  <path d="M42 55H49V56H42Z" fill="#FFFFFF"/>
  <path d="M42 55H43V63H42Z" fill="#FFFFFF"/>
  <path d="M48 55H49V63H48Z" fill="#6F6F6F"/>
  <path d="M42 62H49V63H42Z" fill="#6F6F6F"/>
  <path d="M31 67H38V75H31Z" fill="#F3F3F3"/>
  <path d="M31 67H38V68H31Z" fill="#FFFFFF"/>
  <path d="M31 67H32V75H31Z" fill="#FFFFFF"/>
  <path d="M37 67H38V75H37Z" fill="#6F6F6F"/>
  <path d="M31 74H38V75H31Z" fill="#6F6F6F"/>
  <path d="M42 67H49V75H42Z" fill="#F3F3F3"/>
  <path d="M42 67H49V68H42Z" fill="#FFFFFF"/>
  <path d="M42 67H43V75H42Z" fill="#FFFFFF"/>
  <path d="M48 67H49V75H48Z" fill="#6F6F6F"/>
  <path d="M42 74H49V75H42Z" fill="#6F6F6F"/>
  <path d="M31 79H38V84H31Z" fill="#F3F3F3"/>
  <path d="M31 79H38V80H31Z" fill="#FFFFFF"/>
  <path d="M31 79H32V84H31Z" fill="#FFFFFF"/>
  <path d="M37 79H38V84H37Z" fill="#6F6F6F"/>
  <path d="M31 83H38V84H31Z" fill="#6F6F6F"/>
  <path d="M42 79H49V84H42Z" fill="#F3F3F3"/>
  <path d="M42 79H49V80H42Z" fill="#FFFFFF"/>
  <path d="M42 79H43V84H42Z" fill="#FFFFFF"/>
  <path d="M48 79H49V84H48Z" fill="#6F6F6F"/>
  <path d="M42 83H49V84H42Z" fill="#6F6F6F"/>
</svg>
