<svg xmlns="http://www.w3.org/2000/svg" viewBox="0 0 32 32" fill="none">
  <path d="M4 2H22L29 9V30H4Z" fill="#F8F8F8"/>
  <path d="M4 2H22L29 9V30H4Z" stroke="#3E3E3E" stroke-width="1"/>
  <path d="M22 2V9H29" fill="#DCDCDC"/>
  <path d="M22 2V9H29" stroke="#3E3E3E" stroke-width="1"/>
  <path d="M6 6H18" stroke="#B5C4EE" stroke-width="1"/>
  <path d="M6 9H18" stroke="#B5C4EE" stroke-width="1"/>
  <path d="M6 12H18" stroke="#B5C4EE" stroke-width="1"/>
  <path d="M6 15H18" stroke="#B5C4EE" stroke-width="1"/>
  <path d="M6 18H18" stroke="#B5C4EE" stroke-width="1"/>
  <path d="M6 21H18" stroke="#B5C4EE" stroke-width="1"/>
  <path d="M7 4L26 27" stroke="#D53C3C" stroke-width="1.5"/>
  <path d="M20.5 10.5C18.5 12 17.5 14 17.5 15.5C17.5 17 18.5 18 20 18C21.5 18 22.5 16.5 22.5 14.5C22.5 12.5 21.5 10.5 20.5 9C19.5 7.5 18.5 6 18.5 5C18.5 4.2 19 3.5 20 3.5C21.5 3.5 22.5 4.5 23.2 6" stroke="#D53C3C" stroke-width="1"/>
  <path d="M17.5 15C15.5 16.2 13.5 17 12 17C10.7 17 10 16.5 10 15.7C10 14.8 11 14.2 12.8 14.2C14.4 14.2 16 14.5 17.8 15.1" stroke="#D53C3C" stroke-width="1"/>
  <path d="M17.2 15.3C16 18.5 14.5 21.4 13 23.5C11.8 25.2 10.7 26 9.8 26C9.2 26 8.8 25.7 8.8 25.1C8.8 23.9 10.3 22.6 12.7 21.3C14.2 20.5 15.7 19.8 17.2 19.2" stroke="#D53C3C" stroke-width="1"/>
  <path d="M5 25H15V29H5Z" fill="#FFFFFF"/>
  <path d="M5 25H15V29H5Z" stroke="#3E3E3E" stroke-width="1"/>
  <text x="6.3" y="28" fill="#1F1F1F" font-family="Geneva, Arial, sans-serif" font-size="4.5" font-weight="700">PDF</text>
</svg>
