<svg xmlns="http://www.w3.org/2000/svg" viewBox="0 0 48 48" width="48" height="48">
  <rect x="0" y="0" width="48" height="48" rx="8.6" fill="#060e06"></rect>
  <rect x="0.5" y="0.5" width="47" height="47" rx="8.6" fill="none" stroke="#1a4a1a" stroke-width="1.5"></rect>
  <line x1="0" y1="1" x2="48" y2="1" stroke="#ffffff" stroke-width="0.4" opacity="0.04"></line>
  <line x1="0" y1="3" x2="48" y2="3" stroke="#ffffff" stroke-width="0.4" opacity="0.04"></line>
  <line x1="0" y1="5" x2="48" y2="5" stroke="#ffffff" stroke-width="0.4" opacity="0.04"></line>
  <line x1="0" y1="7" x2="48" y2="7" stroke="#ffffff" stroke-width="0.4" opacity="0.04"></line>
  <line x1="0" y1="9" x2="48" y2="9" stroke="#ffffff" stroke-width="0.4" opacity="0.04"></line>
  <line x1="0" y1="11" x2="48" y2="11" stroke="#ffffff" stroke-width="0.4" opacity="0.04"></line>
  <line x1="0" y1="13" x2="48" y2="13" stroke="#ffffff" stroke-width="0.4" opacity="0.04"></line>
  <line x1="0" y1="15" x2="48" y2="15" stroke="#ffffff" stroke-width="0.4" opacity="0.04"></line>
  <line x1="0" y1="17" x2="48" y2="17" stroke="#ffffff" stroke-width="0.4" opacity="0.04"></line>
  <line x1="0" y1="19" x2="48" y2="19" stroke="#ffffff" stroke-width="0.4" opacity="0.04"></line>
  <line x1="0" y1="21" x2="48" y2="21" stroke="#ffffff" stroke-width="0.4" opacity="0.04"></line>
  <line x1="0" y1="23" x2="48" y2="23" stroke="#ffffff" stroke-width="0.4" opacity="0.04"></line>
  <line x1="0" y1="25" x2="48" y2="25" stroke="#ffffff" stroke-width="0.4" opacity="0.04"></line>
  <line x1="0" y1="27" x2="48" y2="27" stroke="#ffffff" stroke-width="0.4" opacity="0.04"></line>
  <line x1="0" y1="29" x2="48" y2="29" stroke="#ffffff" stroke-width="0.4" opacity="0.04"></line>
  <line x1="0" y1="31" x2="48" y2="31" stroke="#ffffff" stroke-width="0.4" opacity="0.04"></line>
  <line x1="0" y1="33" x2="48" y2="33" stroke="#ffffff" stroke-width="0.4" opacity="0.04"></line>
  <line x1="0" y1="35" x2="48" y2="35" stroke="#ffffff" stroke-width="0.4" opacity="0.04"></line>
  <line x1="0" y1="37" x2="48" y2="37" stroke="#ffffff" stroke-width="0.4" opacity="0.04"></line>
  <line x1="0" y1="39" x2="48" y2="39" stroke="#ffffff" stroke-width="0.4" opacity="0.04"></line>
  <line x1="0" y1="41" x2="48" y2="41" stroke="#ffffff" stroke-width="0.4" opacity="0.04"></line>
  <line x1="0" y1="43" x2="48" y2="43" stroke="#ffffff" stroke-width="0.4" opacity="0.04"></line>
  <line x1="0" y1="45" x2="48" y2="45" stroke="#ffffff" stroke-width="0.4" opacity="0.04"></line>
  <line x1="0" y1="47" x2="48" y2="47" stroke="#ffffff" stroke-width="0.4" opacity="0.04"></line>
  <rect x="11.4" y="9.6" width="3.2" height="3.2" fill="#33ee55"></rect>
  <rect x="10.9" y="9.1" width="4.2" height="4.2" fill="#55ff66" opacity="0.18"></rect>
  <rect x="33" y="9.6" width="3.2" height="3.2" fill="#33ee55"></rect>
  <rect x="32.5" y="9.1" width="4.2" height="4.2" fill="#55ff66" opacity="0.18"></rect>
  <rect x="15" y="13.2" width="3.2" height="3.2" fill="#33ee55"></rect>
  <rect x="14.5" y="12.7" width="4.2" height="4.2" fill="#55ff66" opacity="0.18"></rect>
  <rect x="29.4" y="13.2" width="3.2" height="3.2" fill="#33ee55"></rect>
  <rect x="28.9" y="12.7" width="4.2" height="4.2" fill="#55ff66" opacity="0.18"></rect>
  <rect x="11.4" y="16.8" width="3.2" height="3.2" fill="#33ee55"></rect>
  <rect x="10.9" y="16.3" width="4.2" height="4.2" fill="#55ff66" opacity="0.18"></rect>
  <rect x="15" y="16.8" width="3.2" height="3.2" fill="#33ee55"></rect>
  <rect x="14.5" y="16.3" width="4.2" height="4.2" fill="#55ff66" opacity="0.18"></rect>
  <rect x="18.6" y="16.8" width="3.2" height="3.2" fill="#33ee55"></rect>
  <rect x="18.1" y="16.3" width="4.2" height="4.2" fill="#55ff66" opacity="0.18"></rect>
  <rect x="22.2" y="16.8" width="3.2" height="3.2" fill="#33ee55"></rect>
  <rect x="21.7" y="16.3" width="4.2" height="4.2" fill="#55ff66" opacity="0.18"></rect>
  <rect x="25.8" y="16.8" width="3.2" height="3.2" fill="#33ee55"></rect>
  <rect x="25.3" y="16.3" width="4.2" height="4.2" fill="#55ff66" opacity="0.18"></rect>
  <rect x="29.4" y="16.8" width="3.2" height="3.2" fill="#33ee55"></rect>
  <rect x="28.9" y="16.3" width="4.2" height="4.2" fill="#55ff66" opacity="0.18"></rect>
  <rect x="33" y="16.8" width="3.2" height="3.2" fill="#33ee55"></rect>
  <rect x="32.5" y="16.3" width="4.2" height="4.2" fill="#55ff66" opacity="0.18"></rect>
  <rect x="7.8" y="20.4" width="3.2" height="3.2" fill="#33ee55"></rect>
  <rect x="7.3" y="19.9" width="4.2" height="4.2" fill="#55ff66" opacity="0.18"></rect>
  <rect x="11.4" y="20.4" width="3.2" height="3.2" fill="#33ee55"></rect>
  <rect x="10.9" y="19.9" width="4.2" height="4.2" fill="#55ff66" opacity="0.18"></rect>
  <rect x="18.6" y="20.4" width="3.2" height="3.2" fill="#33ee55"></rect>
  <rect x="18.1" y="19.9" width="4.2" height="4.2" fill="#55ff66" opacity="0.18"></rect>
  <rect x="22.2" y="20.4" width="3.2" height="3.2" fill="#33ee55"></rect>
  <rect x="21.7" y="19.9" width="4.2" height="4.2" fill="#55ff66" opacity="0.18"></rect>
  <rect x="25.8" y="20.4" width="3.2" height="3.2" fill="#33ee55"></rect>
  <rect x="25.3" y="19.9" width="4.2" height="4.2" fill="#55ff66" opacity="0.18"></rect>
  <rect x="33" y="20.4" width="3.2" height="3.2" fill="#33ee55"></rect>
  <rect x="32.5" y="19.9" width="4.2" height="4.2" fill="#55ff66" opacity="0.18"></rect>
  <rect x="36.6" y="20.4" width="3.2" height="3.2" fill="#33ee55"></rect>
  <rect x="36.1" y="19.9" width="4.2" height="4.2" fill="#55ff66" opacity="0.18"></rect>
  <rect x="4.2" y="24" width="3.2" height="3.2" fill="#33ee55"></rect>
  <rect x="3.7" y="23.5" width="4.2" height="4.2" fill="#55ff66" opacity="0.18"></rect>
  <rect x="7.8" y="24" width="3.2" height="3.2" fill="#33ee55"></rect>
  <rect x="7.3" y="23.5" width="4.2" height="4.2" fill="#55ff66" opacity="0.18"></rect>
  <rect x="11.4" y="24" width="3.2" height="3.2" fill="#33ee55"></rect>
  <rect x="10.9" y="23.5" width="4.2" height="4.2" fill="#55ff66" opacity="0.18"></rect>
  <rect x="15" y="24" width="3.2" height="3.2" fill="#33ee55"></rect>
  <rect x="14.5" y="23.5" width="4.2" height="4.2" fill="#55ff66" opacity="0.18"></rect>
  <rect x="18.6" y="24" width="3.2" height="3.2" fill="#33ee55"></rect>
  <rect x="18.1" y="23.5" width="4.2" height="4.2" fill="#55ff66" opacity="0.18"></rect>
  <rect x="22.2" y="24" width="3.2" height="3.2" fill="#33ee55"></rect>
  <rect x="21.7" y="23.5" width="4.2" height="4.2" fill="#55ff66" opacity="0.18"></rect>
  <rect x="25.8" y="24" width="3.2" height="3.2" fill="#33ee55"></rect>
  <rect x="25.3" y="23.5" width="4.2" height="4.2" fill="#55ff66" opacity="0.18"></rect>
  <rect x="29.4" y="24" width="3.2" height="3.2" fill="#33ee55"></rect>
  <rect x="28.9" y="23.5" width="4.2" height="4.2" fill="#55ff66" opacity="0.18"></rect>
  <rect x="33" y="24" width="3.2" height="3.2" fill="#33ee55"></rect>
  <rect x="32.5" y="23.5" width="4.2" height="4.2" fill="#55ff66" opacity="0.18"></rect>
  <rect x="36.6" y="24" width="3.2" height="3.2" fill="#33ee55"></rect>
  <rect x="36.1" y="23.5" width="4.2" height="4.2" fill="#55ff66" opacity="0.18"></rect>
  <rect x="40.2" y="24" width="3.2" height="3.2" fill="#33ee55"></rect>
  <rect x="39.7" y="23.5" width="4.2" height="4.2" fill="#55ff66" opacity="0.18"></rect>
  <rect x="4.2" y="27.6" width="3.2" height="3.2" fill="#33ee55"></rect>
  <rect x="3.7" y="27.1" width="4.2" height="4.2" fill="#55ff66" opacity="0.18"></rect>
  <rect x="11.4" y="27.6" width="3.2" height="3.2" fill="#33ee55"></rect>
  <rect x="10.9" y="27.1" width="4.2" height="4.2" fill="#55ff66" opacity="0.18"></rect>
  <rect x="15" y="27.6" width="3.2" height="3.2" fill="#33ee55"></rect>
  <rect x="14.5" y="27.1" width="4.2" height="4.2" fill="#55ff66" opacity="0.18"></rect>
  <rect x="18.6" y="27.6" width="3.2" height="3.2" fill="#33ee55"></rect>
  <rect x="18.1" y="27.1" width="4.2" height="4.2" fill="#55ff66" opacity="0.18"></rect>
  <rect x="22.2" y="27.6" width="3.2" height="3.2" fill="#33ee55"></rect>
  <rect x="21.7" y="27.1" width="4.2" height="4.2" fill="#55ff66" opacity="0.18"></rect>
  <rect x="25.8" y="27.6" width="3.2" height="3.2" fill="#33ee55"></rect>
  <rect x="25.3" y="27.1" width="4.2" height="4.2" fill="#55ff66" opacity="0.18"></rect>
  <rect x="29.4" y="27.6" width="3.2" height="3.2" fill="#33ee55"></rect>
  <rect x="28.9" y="27.1" width="4.2" height="4.2" fill="#55ff66" opacity="0.18"></rect>
  <rect x="33" y="27.6" width="3.2" height="3.2" fill="#33ee55"></rect>
  <rect x="32.5" y="27.1" width="4.2" height="4.2" fill="#55ff66" opacity="0.18"></rect>
  <rect x="40.2" y="27.6" width="3.2" height="3.2" fill="#33ee55"></rect>
  <rect x="39.7" y="27.1" width="4.2" height="4.2" fill="#55ff66" opacity="0.18"></rect>
  <rect x="4.2" y="31.2" width="3.2" height="3.2" fill="#33ee55"></rect>
  <rect x="3.7" y="30.7" width="4.2" height="4.2" fill="#55ff66" opacity="0.18"></rect>
  <rect x="11.4" y="31.2" width="3.2" height="3.2" fill="#33ee55"></rect>
  <rect x="10.9" y="30.7" width="4.2" height="4.2" fill="#55ff66" opacity="0.18"></rect>
  <rect x="33" y="31.2" width="3.2" height="3.2" fill="#33ee55"></rect>
  <rect x="32.5" y="30.7" width="4.2" height="4.2" fill="#55ff66" opacity="0.18"></rect>
  <rect x="40.2" y="31.2" width="3.2" height="3.2" fill="#33ee55"></rect>
  <rect x="39.7" y="30.7" width="4.2" height="4.2" fill="#55ff66" opacity="0.18"></rect>
  <rect x="15" y="34.8" width="3.2" height="3.2" fill="#33ee55"></rect>
  <rect x="14.5" y="34.3" width="4.2" height="4.2" fill="#55ff66" opacity="0.18"></rect>
  <rect x="29.4" y="34.8" width="3.2" height="3.2" fill="#33ee55"></rect>
  <rect x="28.9" y="34.3" width="4.2" height="4.2" fill="#55ff66" opacity="0.18"></rect>
</svg>