<svg xmlns="http://www.w3.org/2000/svg" viewBox="0 0 48 58" fill="none">
  <path d="M15 7H33V11H15Z" fill="#E6E6E6"/>
  <path d="M18 4H30V7H18Z" fill="#F5F5F5"/>
  <path d="M11 10H37V14H11Z" fill="#D9D9D9"/>
  <path d="M10 14H38V16H10Z" fill="#8B8B8B"/>
  <path d="M13 16H35V48H13Z" fill="#C8C8C8"/>
  <path d="M13 16H35V18H13Z" fill="#FFFFFF"/>
  <path d="M13 16H15V48H13Z" fill="#FFFFFF"/>
  <path d="M33 16H35V48H33Z" fill="#7A7A7A"/>
  <path d="M13 46H35V48H13Z" fill="#7A7A7A"/>
  <path d="M16 19H32V45H16Z" fill="#B0B0B0"/>
  <path d="M17 21H19V43H17Z" fill="#6F6F6F"/>
  <path d="M21 20H23V44H21Z" fill="#E9E9E9"/>
  <path d="M25 20H27V44H25Z" fill="#6F6F6F"/>
  <path d="M29 21H31V43H29Z" fill="#E9E9E9"/>
  <path d="M15 17L11 14H37L33 17H15Z" fill="#F2F2F2"/>
  <path d="M10 13H38V16H10Z" fill="#4F4F4F"/>
  <path d="M12 49H36V52H12Z" fill="#666666"/>
  <path d="M14 52H34V54H14Z" fill="#A7A7A7"/>
  <path d="M13 55H35V57H13Z" fill="#4A4A4A"/>
  <path d="M12 10H36" stroke="#FFFFFF" stroke-width="1"/>
  <path d="M10 14H38" stroke="#1F1F1F" stroke-width="1"/>
  <path d="M13 16V48" stroke="#4D4D4D" stroke-width="1"/>
  <path d="M35 16V48" stroke="#4D4D4D" stroke-width="1"/>
  <path d="M16 48H32" stroke="#F8F8F8" stroke-width="1"/>
</svg>
