<svg xmlns="http://www.w3.org/2000/svg" viewBox="0 0 128 128" role="img" aria-label="Stephen Dunn avatar favicon">
  <defs>
    <clipPath id="avatar-clip">
      <circle cx="64" cy="64" r="61" />
    </clipPath>
  </defs>
  <circle cx="64" cy="64" r="61" fill="#F8FBFC" stroke="#536E76" stroke-width="4" />
  <g clip-path="url(#avatar-clip)">
    <path
      d="M0 132C6 107 25 94 64 94s58 13 64 38H0Z"
      fill="#FFFFFF"
    />
    <path
      d="M48 99c4 7 9 11 16 11s12-4 16-11l12 33H36Z"
      fill="#2F363C"
    />
    <path
      d="M35 132c5-17 14-28 29-28s24 11 29 28H35Z"
      fill="#FFFFFF"
    />
    <path d="M56 83h16v18H56Z" fill="#DDA374" />
    <ellipse cx="37" cy="58" rx="5" ry="10" fill="#E7AC7D" />
    <ellipse cx="91" cy="58" rx="5" ry="10" fill="#E7AC7D" />
    <ellipse cx="64" cy="55" rx="28" ry="34" fill="#F3BE8E" />
    <path
      d="M36 58c0-24 12-39 31-39 20 0 31 13 31 34 0 6-1 11-2 16-2-5-5-9-10-12-7-4-16-6-26-6-9 0-17 2-24 7-2 1-4 3-6 6-1-2-1-4-1-6Z"
      fill="#402721"
    />
    <path
      d="M42 36c6-8 15-12 26-12 9 0 17 3 23 10-5-1-10-1-14 1-1-3-5-6-11-7-9-1-18 1-24 8Z"
      fill="#53352D"
    />
    <path
      d="M49 51c4-2 8-3 13-2"
      fill="none"
      stroke="#2E1A16"
      stroke-linecap="round"
      stroke-width="3.5"
    />
    <path
      d="M66 49c5-1 10 0 13 3"
      fill="none"
      stroke="#2E1A16"
      stroke-linecap="round"
      stroke-width="3.5"
    />
    <ellipse cx="55" cy="58" rx="4.9" ry="3.4" fill="#FFFFFF" />
    <ellipse cx="73" cy="58" rx="4.9" ry="3.4" fill="#FFFFFF" />
    <circle cx="55" cy="58" r="1.7" fill="#61A9DA" />
    <circle cx="73" cy="58" r="1.7" fill="#61A9DA" />
    <circle cx="55" cy="58" r="0.8" fill="#1F2B33" />
    <circle cx="73" cy="58" r="0.8" fill="#1F2B33" />
    <path
      d="M64 60v9c0 2 2 3 4 3"
      fill="none"
      stroke="#D09361"
      stroke-linecap="round"
      stroke-linejoin="round"
      stroke-width="2.5"
    />
    <path
      d="M43 73c2 8 6 14 10 18 4 4 8 6 11 6s7-2 11-6c4-4 8-10 10-18-4 2-8 3-12 3-4 0-6-1-9-1s-5 1-9 1c-4 0-8-1-12-3Z"
      fill="#402721"
    />
    <path
      d="M51 77c3-3 8-5 13-5s10 2 13 5c-3 3-8 5-13 5s-10-2-13-5Z"
      fill="#402721"
    />
    <path
      d="M57 82c2 2 4 3 7 3 2 0 5-1 7-3"
      fill="none"
      stroke="#8D5243"
      stroke-linecap="round"
      stroke-width="2.5"
    />
  </g>
</svg>
