<svg width="1600" height="900" viewBox="0 0 1600 900" fill="none" xmlns="http://www.w3.org/2000/svg">
  <rect width="1600" height="900" fill="#0D0D0F"/>
  <rect x="96" y="72" width="1408" height="756" rx="32" fill="#131316" stroke="#28282E" stroke-width="4"/>
  <rect x="128" y="108" width="1344" height="52" rx="18" fill="#0F1013"/>
  <circle cx="164" cy="134" r="10" fill="#FF6B6B"/>
  <circle cx="196" cy="134" r="10" fill="#FFD166"/>
  <circle cx="228" cy="134" r="10" fill="#80ED99"/>
  <text x="260" y="142" fill="#7B7B84" font-family="IBM Plex Mono, monospace" font-size="24">gomoku-ios</text>
  <rect x="176" y="208" width="860" height="520" rx="24" fill="#0B0B0D" stroke="#28282E" stroke-width="3"/>
  <g stroke="#5A4A30" stroke-width="5">
    <line x1="254" y1="260" x2="254" y2="676"/>
    <line x1="332" y1="260" x2="332" y2="676"/>
    <line x1="410" y1="260" x2="410" y2="676"/>
    <line x1="488" y1="260" x2="488" y2="676"/>
    <line x1="566" y1="260" x2="566" y2="676"/>
    <line x1="644" y1="260" x2="644" y2="676"/>
    <line x1="722" y1="260" x2="722" y2="676"/>
    <line x1="800" y1="260" x2="800" y2="676"/>
    <line x1="878" y1="260" x2="878" y2="676"/>
    <line x1="956" y1="260" x2="956" y2="676"/>
    <line x1="218" y1="296" x2="992" y2="296"/>
    <line x1="218" y1="374" x2="992" y2="374"/>
    <line x1="218" y1="452" x2="992" y2="452"/>
    <line x1="218" y1="530" x2="992" y2="530"/>
    <line x1="218" y1="608" x2="992" y2="608"/>
    <line x1="218" y1="686" x2="992" y2="686"/>
  </g>
  <g>
    <circle cx="410" cy="374" r="24" fill="#F2F2F2"/>
    <circle cx="488" cy="452" r="24" fill="#101114"/>
    <circle cx="566" cy="530" r="24" fill="#F2F2F2"/>
    <circle cx="644" cy="452" r="24" fill="#101114"/>
    <circle cx="722" cy="530" r="24" fill="#F2F2F2"/>
    <circle cx="800" cy="608" r="24" fill="#101114"/>
  </g>
  <rect x="1104" y="208" width="288" height="234" rx="24" fill="#101114" stroke="#28282E" stroke-width="3"/>
  <text x="1144" y="264" fill="#FF8C1A" font-family="IBM Plex Mono, monospace" font-size="26">match.state</text>
  <text x="1144" y="318" fill="#C8C8CC" font-family="IBM Plex Mono, monospace" font-size="22">turn: white</text>
  <text x="1144" y="360" fill="#C8C8CC" font-family="IBM Plex Mono, monospace" font-size="22">moves: 18</text>
  <text x="1144" y="402" fill="#D8FF5E" font-family="IBM Plex Mono, monospace" font-size="22">threat: open four</text>
  <rect x="1104" y="470" width="288" height="258" rx="24" fill="#101114" stroke="#28282E" stroke-width="3"/>
  <text x="1144" y="526" fill="#58D8FF" font-family="IBM Plex Mono, monospace" font-size="26">notes</text>
  <text x="1144" y="576" fill="#C8C8CC" font-family="IBM Plex Mono, monospace" font-size="20">Native board UI</text>
  <text x="1144" y="614" fill="#C8C8CC" font-family="IBM Plex Mono, monospace" font-size="20">Win detection</text>
  <text x="1144" y="652" fill="#C8C8CC" font-family="IBM Plex Mono, monospace" font-size="20">Fast reset loop</text>
  <text x="1144" y="690" fill="#C8C8CC" font-family="IBM Plex Mono, monospace" font-size="20">Minimal chrome</text>
</svg>
